<svg width="1100" height="1111" viewBox="0 0 1100 1111" fill="none" xmlns="http://www.w3.org/2000/svg">
<path fill-rule="evenodd" clip-rule="evenodd" d="M1099.36 50.8589H600.392V54.1586H489.814V50.8589H0V1111H279.954V1110.61H283.32V1111H1099.36V50.8589ZM600.392 0H489.82V50.7957H600.392V0ZM1069.22 186.371V168.985H1065.86V186.371H939.505V205.448H1065.86V208.244H1069.22V205.448V186.371ZM1069.22 156.645H1065.86V154.398H1069.22V156.645ZM833.153 692.356V679.051H843.971V623.726H833.153V610.422H807.519V692.356H833.153ZM833.153 554.685H807.519V537.633H833.153V554.685ZM835.798 487.553H795.662V484.186H835.798V487.553ZM923.288 224.524H793.57V191.143H923.288V224.524ZM852.131 487.553H849.014V484.186H852.131V487.553ZM940.323 680.875V705.347H867.014V708.714H940.323V732.555H867.014V735.918H940.323V760.393H867.014V763.76H940.323V774.395H1025.23V663.739H940.323V677.505H867.014V680.875H940.323ZM1019.73 924.112V840.886C1022.17 845.489 1026.83 848.313 1032.89 848.313C1041.89 848.313 1047.93 842.182 1047.93 833.054C1047.93 823.93 1041.89 817.795 1032.89 817.795C1025.99 817.795 1020.85 821.422 1018.82 827.219H991.009V924.112H1019.73ZM1069.22 327.14H1065.86V287.885H1069.22V327.14ZM1069.22 275.545H1065.86V273.298H1069.22V275.545ZM1069.22 334.996H1065.86V332.75H1069.22V334.996ZM1069.22 386.588H1065.86V347.332H1069.22V386.588ZM1069.22 394.445H1065.86V392.202H1069.22V394.445ZM1069.22 446.04H1065.86V406.784H1069.22V446.04ZM1069.22 453.89H1065.86V451.647H1069.22V453.89ZM1047.47 487.553H1069.22V466.233H1065.85V484.186H1047.47V487.553ZM1060.19 554.685H1034.55V537.633H1060.19V554.685ZM1040.98 487.553H1037.86V484.186H1040.98V487.553ZM1025.23 650.473C1040.56 650.473 1050.86 640.014 1050.86 624.445C1050.86 608.88 1040.56 598.417 1025.23 598.417C1009.9 598.417 999.598 608.88 999.598 624.445C999.598 640.014 1009.9 650.473 1025.23 650.473ZM957.141 617.895C982.613 617.895 999.594 600.642 999.594 574.773C999.594 548.899 982.613 531.651 957.141 531.651C931.669 531.651 914.688 548.899 914.688 574.773C914.688 600.642 931.669 617.895 957.141 617.895ZM978.025 487.553H974.908V484.186H978.025V487.553ZM961.699 487.553H921.563V484.186H961.699V487.553ZM915.076 487.553H911.959V484.186H915.076V487.553ZM1024.65 487.553H984.512V484.186H1024.65V487.553ZM898.75 487.553H858.614V484.186H898.75V487.553ZM1023.89 316.766C1023.89 276.232 997.063 248.996 957.142 248.996C917.217 248.996 890.393 276.232 890.393 316.766C890.393 357.303 917.217 384.536 957.142 384.536C997.063 384.536 1023.89 357.303 1023.89 316.766ZM1069.22 210.215H939.502V243.6H1065.86V267.688H1069.22V228.432H1069.22V216.093H1069.22V213.849H1069.22V210.215ZM939.393 1046.15C944.658 1048.27 950.616 1049.42 957.142 1049.42C982.613 1049.42 999.595 1032.16 999.595 1006.29C999.595 980.419 982.613 963.174 957.142 963.174C950.616 963.174 944.658 964.322 939.393 966.438V1046.15ZM934.62 968.792C922.182 975.852 914.688 989.157 914.688 1006.29C914.688 1023.43 922.182 1036.74 934.62 1043.8V968.792ZM853.782 922.239C858.191 922.239 861.551 920.154 863.238 916.762C874.084 924.327 887.805 928.588 903.67 928.588C919.436 928.588 933.082 924.387 943.897 916.907C945.612 920.214 948.933 922.239 953.282 922.239C959.688 922.239 963.963 917.911 963.963 911.417C963.963 907.057 962.001 903.715 958.793 901.961C966.238 891.125 970.415 877.454 970.415 861.667C970.415 845.827 966.206 832.117 958.712 821.267C962.135 819.577 964.238 816.214 964.238 811.78C964.238 805.37 959.91 801.102 953.416 801.102C948.993 801.102 945.612 803.12 943.883 806.42C933.071 798.947 919.429 794.749 903.67 794.749C887.91 794.749 874.264 798.947 863.453 806.42C861.727 803.12 858.35 801.102 853.923 801.102C847.426 801.102 843.105 805.37 843.105 811.78C843.105 816.214 845.204 819.58 848.627 821.267C841.133 832.117 836.921 845.827 836.921 861.667C836.921 877.401 841.073 891.041 848.472 901.859C845.144 903.581 843.105 906.969 843.105 911.417C843.105 917.911 847.373 922.239 853.782 922.239ZM807.523 979.264C807.523 994.833 817.823 1005.29 833.156 1005.29C848.486 1005.29 858.787 994.833 858.787 979.264C858.787 963.695 848.486 953.232 833.156 953.232C817.823 953.232 807.523 963.695 807.523 979.264ZM754.463 460.603H751.1V458.356H754.463V460.603ZM754.463 446.015H751.1V406.759H754.463V446.015ZM754.463 401.15H751.1V398.907H754.463V401.15ZM754.463 386.568H751.1V347.312H754.463V386.568ZM754.463 341.701H751.1V339.455H754.463V341.701ZM754.463 327.116H751.1V287.861H754.463V327.116ZM754.463 282.25H751.1V280.007H754.463V282.25ZM754.463 267.667H751.1V228.411H754.463V267.667ZM754.463 222.805H751.1V220.558H754.463V222.805ZM754.463 208.215H751.1V168.96H754.463V208.215ZM754.463 163.353H751.1V161.109H754.463V163.353ZM719.324 783.012H709.136V779.649H719.324V783.012ZM410.549 1034.31V1060.01H413.916V1034.31H422.917V963.171H413.916V937.477H410.549V963.171H401.555V1034.31H410.549ZM434.94 963.174V1034.31H443.938V1060.01H447.301V1034.31H456.302V963.174H447.301V937.477H443.938V963.174H434.94ZM410.141 904.06V907.423H435.838V916.411H506.975V907.423H532.672V904.06H506.975V895.052H435.838V904.06H410.141ZM685.792 1110.61H628.562V1071H685.792V1110.61ZM654.879 572.751C661.369 572.751 665.697 568.48 665.697 562.07C665.697 555.664 661.369 551.393 654.879 551.393C648.388 551.393 644.06 555.664 644.06 562.07C644.06 568.48 648.388 572.751 654.879 572.751ZM665.112 530.348H654.924V526.985H665.112V530.348ZM654.879 637.711C661.369 637.711 665.697 633.439 665.697 627.03C665.697 620.624 661.369 616.349 654.879 616.349C648.388 616.349 644.06 620.624 644.06 627.03C644.06 633.439 648.388 637.711 654.879 637.711ZM654.879 702.668C661.369 702.668 665.697 698.399 665.697 691.99C665.697 685.581 661.369 681.309 654.879 681.309C648.388 681.309 644.06 685.581 644.06 691.99C644.06 698.399 648.388 702.668 654.879 702.668ZM665.112 783.012H654.924V779.649H665.112V783.012ZM665.144 757.713H654.956V754.346H665.144V757.713ZM689.094 874.035V870.672H663.397V861.664H592.261V870.672H566.563V874.035H592.261V883.026H663.397V874.035H689.094ZM638.038 757.713H627.85V754.346H638.038V757.713ZM638.007 530.348H627.815V526.985H638.007V530.348ZM638.007 783.012H627.815V779.649H638.007V783.012ZM612.341 694.042V690.679H573.494V681.671H528.664V690.679H489.81V694.042H528.664V703.036H573.494V694.042H612.341ZM610.897 530.348H600.709V526.985H610.897V530.348ZM574.695 533.017V530.347H583.792V526.984H574.695V524.019H503.559V533.017H477.862V536.38H503.559V545.378H574.695V536.38H600.393V533.017H574.695ZM502.47 530.348H492.282V526.985H502.47V530.348ZM491.719 655.643H452.111V598.413H491.719V655.643ZM475.361 530.348H465.173V526.985H475.361V530.348ZM448.287 757.713H438.099V754.346H448.287V757.713ZM448.255 530.348H438.067V526.985H448.255V530.348ZM448.259 783.012H438.071V779.649H448.259V783.012ZM506.971 870.672V861.664H435.835V870.672H410.141V874.035H435.835V883.026H506.971V874.035H532.672V870.672H506.971ZM421.181 757.713H410.993V754.346H421.181V757.713ZM421.149 530.348H410.961V526.985H421.149V530.348ZM421.149 783.012H410.961V779.649H421.149V783.012ZM475.365 783.012H465.177V779.649H475.365V783.012ZM475.392 757.713H465.204V754.346H475.392V757.713ZM600.393 569.768V566.405H574.695V557.4H503.559V566.405H477.862V569.768H503.559V578.763H574.695V569.768H600.393ZM502.47 783.012H492.282V779.649H502.47V783.012ZM502.501 757.713H492.31V754.346H502.501V757.713ZM529.579 783.012H519.388V779.649H529.579V783.012ZM529.608 757.713H519.42V754.346H529.608V757.713ZM556.685 783.012H546.494V779.649H556.685V783.012ZM556.717 757.713H546.526V754.346H556.717V757.713ZM583.791 783.012H573.603V779.649H583.791V783.012ZM583.819 757.713H573.631V754.346H583.819V757.713ZM610.901 783.012H600.713V779.649H610.901V783.012ZM610.929 757.713H600.741V754.346H610.929V757.713ZM622.965 816.517V813.154H610.326V787.467H480.611V813.154H467.969V816.517H480.611V842.214H610.326V816.517H622.965ZM597.085 1034.31H493.849V963.17H597.085V1034.31ZM692.222 530.348H682.03V526.985H692.222V530.348ZM692.249 757.713H682.061V754.346H692.249V757.713ZM692.222 783.012H682.03V779.649H692.222V783.012ZM663.397 907.423H689.094V904.06H663.397V895.052H592.261V904.06H566.563V907.423H592.261V916.411H663.397V907.423ZM394.043 783.012H383.852V779.649H394.043V783.012ZM363.561 1110.31H360.194V1100.17H363.561V1110.31ZM363.561 1083.31H360.194V1073.18H363.561V1083.31ZM363.561 1056.32H360.194V1046.19H363.561V1056.32ZM363.561 1029.33H360.194V1019.2H363.561V1029.33ZM363.561 1002.33H360.194V992.202H363.561V1002.33ZM363.561 975.345H360.194V965.213H363.561V975.345ZM363.561 948.348H360.194V938.22H363.561V948.348ZM363.561 921.358H360.194V911.227H363.561V921.358ZM363.561 894.365H360.194V884.234H363.561V894.365ZM363.561 867.376H360.194V857.241H363.561V867.376ZM363.561 840.383H360.194V830.251H363.561V840.383ZM363.561 813.386H360.194V803.255H363.561V813.386ZM363.561 733.015H360.194V722.169H363.561V733.015ZM363.561 704.597H360.194V693.754H363.561V704.597ZM363.561 676.173H360.194V665.33H363.561V676.173ZM363.561 647.757H360.194V636.911H363.561V647.757ZM363.561 619.339H360.194V608.496H363.561V619.339ZM363.561 590.915H360.194V580.072H363.561V590.915ZM363.561 562.5H360.194V551.653H363.561V562.5ZM330.496 1060.01H33.5113V539.028H330.496V1060.01ZM300.482 487.553H260.346V484.186H300.482V487.553ZM253.862 487.553H250.742V484.186H253.862V487.553ZM144.978 373.994H94.4254V316.765H144.978V373.994ZM142.118 311.325H97.2879V191.143H142.118V311.325ZM127.965 487.553H124.848V484.186H127.965V487.553ZM174.58 487.553H134.444V484.186H174.58V487.553ZM30.2965 446.015H26.9298V406.759H30.2965V446.015ZM30.2965 460.603H26.9298V458.356H30.2965V460.603ZM30.2965 401.15H26.9298V398.907H30.2965V401.15ZM30.2965 386.568H26.9298V347.312H30.2965V386.568ZM30.2965 341.701H26.9298V339.455H30.2965V341.701ZM30.2965 327.116H26.9298V287.861H30.2965V327.116ZM30.2965 282.25H26.9298V280.007H30.2965V282.25ZM30.2965 267.667H26.9298V228.411H30.2965V267.667ZM30.2965 222.805H26.9298V220.558H30.2965V222.805ZM30.2965 208.215H26.9298V168.96H30.2965V208.215ZM30.2965 163.353H26.9298V161.109H30.2965V163.353ZM26.9296 127.462V148.768H30.2962V130.825H48.679V127.462H26.9296ZM48.679 487.553V484.186H30.2962V466.233H26.9296V487.553H48.679ZM33.3814 105.25C44.2526 105.25 51.5072 97.8898 51.5072 86.8425C51.5072 75.7987 44.2526 68.4315 33.3814 68.4315C22.5067 68.4315 15.2592 75.7987 15.2592 86.8425C15.2592 97.8898 22.5067 105.25 33.3814 105.25ZM58.2931 130.823H55.1765V127.46H58.2931V130.823ZM65.0127 487.553H61.896V484.186H65.0127V487.553ZM111.632 487.553H71.4959V484.186H111.632V487.553ZM144.977 130.825H174.591V127.462H134.455V129.145H121.242V127.462H118.125V129.145H111.642V127.462H71.506V130.825H94.4247V186.371H144.977V130.825ZM184.194 130.823H181.077V127.46H184.194V130.823ZM190.914 487.553H187.794V484.186H190.914V487.553ZM237.532 487.553H197.397V484.186H237.532V487.553ZM237.54 130.823H197.404V127.46H237.54V130.823ZM261.117 324.023C249.238 324.023 241.311 328.291 241.311 334.701C241.311 341.11 249.238 345.382 261.117 345.382C273.002 345.382 280.922 341.11 280.922 334.701C280.922 328.291 273.002 324.023 261.117 324.023ZM247.143 130.823H244.026V127.46H247.143V130.823ZM279.316 235.684C267.434 235.684 259.511 239.952 259.511 246.365C259.511 252.774 267.434 257.043 279.316 257.043C291.198 257.043 299.122 252.774 299.122 246.365C299.122 239.952 291.198 235.684 279.316 235.684ZM300.489 130.823H260.353V127.46H300.489V130.823ZM310.092 130.823H306.976V127.46H310.092V130.823ZM316.811 487.553H313.694V484.186H316.811V487.553ZM341.691 148.768H345.054V127.462H323.308V130.825H341.691V148.768ZM345.054 156.645H341.687V154.398H345.054V156.645ZM345.054 208.243H341.687V168.988H345.054V208.243ZM345.054 216.093H341.687V213.849H345.054V216.093ZM345.054 267.688H341.687V228.433H345.054V267.688ZM345.054 275.545H341.687V273.298H345.054V275.545ZM345.054 327.14H341.687V287.885H345.054V327.14ZM345.054 334.996H341.687V332.75H345.054V334.996ZM345.054 386.588H341.687V347.332H345.054V386.588ZM345.054 394.445H341.687V392.202H345.054V394.445ZM345.054 446.04H341.687V406.784H345.054V446.04ZM345.054 453.89H341.687V451.647H345.054V453.89ZM323.308 487.553H345.054V466.233H341.691V484.186H323.308V487.553ZM363.557 530.347H366.97V526.984H360.194V534.08H363.557V530.347ZM360.194 757.713H366.97V754.346H363.557V750.599H360.194V757.713ZM363.557 783.012H366.97V779.648H360.194V786.389H363.557V783.012ZM394.043 530.348H383.852V526.985H394.043V530.348ZM394.075 757.713H383.883V754.346H394.075V757.713ZM454.013 87.5125H404.414V68.4359H454.013V87.5125ZM454.013 125.662H404.414V92.2805H454.013V125.662ZM690.56 87.5125H459.739V68.4359H690.56V87.5125ZM690.56 125.662H459.739V92.2805H690.56V125.662ZM690.563 157.762H411.595V154.395H690.563V157.762ZM719.328 530.348H709.14V526.985H719.328V530.348ZM719.358 757.713H709.167V754.346H719.358V757.713ZM739.654 534.08H743.017V526.984H736.242V530.347H739.654V534.08ZM743.018 562.511H739.651V551.668H743.018V562.511ZM743.018 590.929H739.651V580.083H743.018V590.929ZM743.018 619.349H739.651V608.506H743.018V619.349ZM743.018 647.769H739.651V636.922H743.018V647.769ZM743.018 676.187H739.651V665.34H743.018V676.187ZM743.018 704.611H739.651V693.764H743.018V704.611ZM743.018 733.027H739.651V722.184H743.018V733.027ZM736.242 757.713H743.017V750.599H739.654V754.346H736.242V757.713ZM739.654 786.389H743.017V779.648H736.242V783.012H739.654V786.389ZM743.018 813.361H739.651V803.233H743.018V813.361ZM743.018 840.354H739.651V830.222H743.018V840.354ZM743.018 867.347H739.651V857.216H743.018V867.347ZM743.018 894.341H739.651V884.206H743.018V894.341ZM743.018 921.331H739.651V911.203H743.018V921.331ZM743.018 948.327H739.651V938.196H743.018V948.327ZM743.018 975.317H739.651V965.185H743.018V975.317ZM743.018 1002.31H739.651V992.182H743.018V1002.31ZM743.018 1029.3H739.651V1019.17H743.018V1029.3ZM743.018 1056.3H739.651V1046.16H743.018V1056.3ZM743.018 1083.29H739.651V1073.16H743.018V1083.29ZM743.018 1110.28H739.651V1100.15H743.018V1110.28ZM754.462 130.825H772.852V127.462H751.099V148.768H754.462V130.825ZM751.099 487.553H772.852V484.186H754.462V466.233H751.099V487.553ZM782.463 130.823H779.343V127.46H782.463V130.823ZM789.178 487.553H786.058V484.186H789.178V487.553ZM796.638 1060.01H793.274V551.393H796.638V1060.01ZM923.288 186.371H793.57V167.298H923.288V186.371ZM835.812 130.823H795.676V127.46H835.812V130.823ZM845.411 130.823H842.295V127.46H845.411V130.823ZM898.76 130.823H858.624V127.46H898.76V130.823ZM908.36 130.823H905.243V127.46H908.36V130.823ZM961.709 130.823H921.573V127.46H961.709V130.823ZM971.312 130.823H968.196V127.46H971.312V130.823ZM1024.66 130.823H984.522V127.46H1024.66V130.823ZM1034.26 130.823H1031.14V127.46H1034.26V130.823ZM1069.22 127.462H1047.47V130.825H1065.85V148.768H1069.22V127.462ZM1066.36 105.25C1077.24 105.25 1084.48 97.8863 1084.48 86.8425C1084.48 75.7987 1077.24 68.4315 1066.36 68.4315C1055.49 68.4315 1048.24 75.7987 1048.24 86.8425C1048.24 97.8863 1055.49 105.25 1066.36 105.25ZM327.129 1056.65H36.8746V542.392H327.129V1056.65ZM171.383 594.863C184.096 594.863 192.572 586.824 192.572 574.773C192.572 562.715 184.096 554.685 171.383 554.685C158.67 554.685 150.193 562.715 150.193 574.773C150.193 586.824 158.67 594.863 171.383 594.863ZM273.516 836.868H233.905V779.641H273.516V836.868ZM180.271 958.561C167.555 958.561 159.078 966.594 159.078 978.648C159.078 990.706 167.555 998.739 180.271 998.739C192.984 998.739 201.461 990.706 201.461 978.648C201.461 966.594 192.984 958.561 180.271 958.561ZM120.759 955.916C112.399 955.916 106.828 965.005 106.828 978.648C106.828 992.287 112.399 1001.38 120.759 1001.38C129.12 1001.38 134.691 992.287 134.691 978.648C134.691 965.005 129.12 955.916 120.759 955.916ZM253.715 692.355H106.825V635.126H253.715V692.355ZM241.315 624.444H94.4254V613.767H241.315V624.444ZM855.42 979.265C855.42 993.031 846.683 1001.93 833.156 1001.93C819.626 1001.93 810.885 993.031 810.885 979.265C810.885 965.495 819.626 956.6 833.156 956.6C846.683 956.6 855.42 965.495 855.42 979.265ZM822.337 979.265C822.337 985.674 826.662 989.942 833.152 989.942C839.646 989.942 843.97 985.674 843.97 979.265C843.97 972.855 839.646 968.583 833.152 968.583C826.662 968.583 822.337 972.855 822.337 979.265ZM893.759 316.765C893.759 278.242 919.231 252.362 957.141 252.362C995.051 252.362 1020.52 278.242 1020.52 316.765C1020.52 355.288 995.051 381.172 957.141 381.172C919.231 381.172 893.759 355.288 893.759 316.765ZM999.594 316.765C999.594 290.892 982.613 273.647 957.141 273.647C931.669 273.647 914.688 290.892 914.688 316.765C914.688 342.642 931.669 359.887 957.141 359.887C982.613 359.887 999.594 342.642 999.594 316.765ZM1025.23 601.787C1038.75 601.787 1047.5 610.679 1047.5 624.445C1047.5 638.211 1038.75 647.11 1025.23 647.11C1011.7 647.11 1002.96 638.211 1002.96 624.445C1002.96 610.679 1011.7 601.787 1025.23 601.787ZM1025.23 635.126C1031.72 635.126 1036.05 630.85 1036.05 624.445C1036.05 618.035 1031.72 613.764 1025.23 613.764C1018.74 613.764 1014.41 618.035 1014.41 624.445C1014.41 630.85 1018.74 635.126 1025.23 635.126ZM1021.21 833.053C1021.21 830.236 1021.93 827.82 1023.2 825.905L1040.08 842.78C1038.17 844.161 1035.75 844.946 1032.89 844.946C1025.79 844.946 1021.21 840.28 1021.21 833.053ZM1042.43 840.379L1025.52 823.472C1027.46 822.007 1029.94 821.158 1032.89 821.158C1039.98 821.158 1044.57 825.831 1044.57 833.054C1044.57 835.97 1043.79 838.438 1042.43 840.379ZM564.011 12.1921L588.401 36.5828C590.666 33.695 592 29.9445 592 25.4862C592 15.2136 585.26 8.36763 575.15 8.36763C570.652 8.36763 566.877 9.78332 564.011 12.1921ZM561.658 14.6816C559.538 17.5306 558.298 21.179 558.298 25.4859C558.298 35.755 565.038 42.601 575.149 42.601C579.491 42.601 583.161 41.2698 585.992 39.0195L561.658 14.6816ZM504.594 11.9104L528.917 36.2341C531.013 33.3922 532.235 29.7614 532.235 25.4862C532.235 15.2136 525.495 8.36763 515.38 8.36763C511.066 8.36763 507.418 9.67767 504.594 11.9104ZM502.171 14.3296C499.878 17.2244 498.533 20.9996 498.533 25.4861C498.533 35.7551 505.273 42.6011 515.38 42.6011C519.909 42.6011 523.698 41.1678 526.572 38.7344L502.171 14.3296Z" fill="#6CCDF2"/>
</svg>
